<svg width="76" height="17" viewBox="0 0 76 17" fill="none" xmlns="http://www.w3.org/2000/svg">
<path d="M17.6404 4.28541C19.921 4.28542 21.4243 6.08821 21.4243 8.87286C21.4243 11.6653 19.9298 13.4593 17.6743 13.4593C16.5085 13.5203 15.4104 12.9097 14.847 11.8872H14.8044V16.338H12.9599V4.37943H14.7453V5.87401H14.7792C15.3676 4.85792 16.4669 4.24756 17.6404 4.28541ZM27.5306 4.28542C29.8112 4.28542 31.3145 6.08821 31.3145 8.87286C31.3145 11.6653 29.82 13.4593 27.5645 13.4593C26.3987 13.5203 25.3006 12.9097 24.7372 11.8872H24.6946V16.338H22.8501V4.37943H24.6354V5.87401H24.6693C25.2577 4.85792 26.357 4.24756 27.5306 4.28542ZM40.7725 0.834839C43.3768 0.834839 45.1622 2.29549 45.2223 4.42202H43.3603C43.2489 3.19205 42.2321 2.44961 40.7463 2.44961C39.2604 2.44961 38.2437 3.20078 38.2437 4.29409C38.2437 5.16544 38.8931 5.67817 40.4817 6.07068L41.8396 6.40411C44.3683 7.00213 45.419 8.01793 45.419 9.8207C45.419 12.1265 43.5823 13.5707 40.661 13.5707C37.9277 13.5707 36.0823 12.1605 35.963 9.93118L37.8512 9.93128C37.9878 11.1535 39.1752 11.956 40.7977 11.956C42.3523 11.956 43.4709 11.1535 43.4709 10.0514C43.4709 9.09477 42.7962 8.52196 41.1989 8.1294L39.6016 7.74461C37.3384 7.19795 36.2878 6.13953 36.2878 4.42202C36.2878 2.29549 38.141 0.834839 40.7725 0.834839ZM56.3599 4.26894C58.9653 4.26894 60.6227 6.04553 60.6227 8.87286C60.6227 11.7079 58.974 13.4768 56.3599 13.4768C53.7468 13.4768 52.0982 11.7079 52.0982 8.87286C52.0982 6.04557 53.7633 4.26894 56.3599 4.26894ZM71.296 4.26893C73.7821 4.26893 75.3455 5.97674 75.3455 8.7013V9.33325H68.9989V9.44471C68.9396 10.1137 69.1706 10.7759 69.6331 11.2629C70.0956 11.7498 70.745 12.0147 71.4162 11.9899C72.3113 12.0738 73.1552 11.5598 73.4914 10.726L75.2428 10.7261C74.9947 12.3573 73.4061 13.4768 71.3735 13.4768C68.7595 13.4768 67.137 11.7253 67.137 8.9155C67.137 6.09693 68.7682 4.26893 71.296 4.26893ZM49.3997 2.2529V4.37943H51.1085V5.84008H49.3997V10.7939C49.3997 11.5635 49.7419 11.9221 50.493 11.9221C50.6959 11.9186 50.8984 11.9043 51.0998 11.8794V13.3314C50.7621 13.3945 50.4188 13.423 50.0753 13.4167C48.256 13.4167 47.5465 12.7333 47.5465 10.9906V5.84008H46.24V4.37943H47.5465V2.2529H49.3997ZM7.36444 1.04035L11.8143 13.3653H9.79046L8.66324 10.034H3.9653L2.83709 13.3653H0.847229L5.29705 1.04035H7.36444ZM66.1067 4.2854C66.3192 4.28465 66.5312 4.30774 66.7386 4.35422V6.07948C66.4703 5.99748 66.1904 5.95983 65.9099 5.96802C65.3676 5.94602 64.8428 6.16213 64.4733 6.5596C64.1038 6.95707 63.9265 7.49619 63.9879 8.03541V13.3653H62.1434V4.37943H63.9026V5.90888H63.9453C64.1906 4.9243 65.0927 4.24668 66.1067 4.2854ZM56.3599 5.78872C54.8654 5.78872 53.9775 6.94212 53.9775 8.87286C53.9775 10.8201 54.8654 11.956 56.3599 11.956C57.8545 11.956 58.7433 10.8201 58.7433 8.87286C58.7433 6.9334 57.8545 5.78872 56.3599 5.78872ZM17.1538 5.85753C15.7446 5.85753 14.7966 7.07878 14.7966 8.87286C14.7966 10.6834 15.7446 11.8959 17.1538 11.8959C18.5883 11.8959 19.5285 10.7086 19.5285 8.87286C19.5285 7.05359 18.5883 5.85753 17.1538 5.85753ZM27.044 5.85753C25.6348 5.85753 24.6868 7.07878 24.6868 8.87286C24.6868 10.6834 25.6348 11.8959 27.044 11.8959C28.4785 11.8959 29.4187 10.7086 29.4187 8.87286C29.4187 7.05359 28.4785 5.85753 27.044 5.85753ZM6.33999 3.09033H6.28862L4.45185 8.49679H8.17575L6.33999 3.09033ZM71.296 5.76351C70.6893 5.75989 70.1063 5.99876 69.6766 6.42703C69.2469 6.85529 69.0061 7.43747 69.0076 8.04416H73.5001C73.5335 7.44302 73.3147 6.85518 72.8963 6.42226C72.478 5.98934 71.8979 5.75058 71.296 5.76351Z" fill="white"/>
</svg>
