<svg width="43" height="36" viewBox="0 0 43 36" fill="none" xmlns="http://www.w3.org/2000/svg">
<path fill-rule="evenodd" clip-rule="evenodd" d="M13.8702 27.9364L20.5556 21.7001C19.6865 21.6152 19.0403 21.5728 18.3272 21.5728C12.3771 21.5728 0.49939 24.4152 0.49939 30.0576V34.3001H20.5556L13.8702 27.9364ZM18.3272 17.3304C23.2521 17.3304 27.241 13.5334 27.241 8.84555C27.241 4.15768 23.2521 0.360718 18.3272 0.360718C13.4022 0.360718 9.41327 4.15768 9.41327 8.84555C9.41327 13.5334 13.4022 17.3304 18.3272 17.3304Z" fill="#00CE8D"/>
<path fill-rule="evenodd" clip-rule="evenodd" d="M28.29 35.3607L20.5572 27.9364L23.677 24.9455L28.29 29.3576L39.722 18.3909L42.8419 21.3818L28.29 35.3607Z" fill="#00CE8D"/>
</svg>
