<svg width="85" height="18" viewBox="0 0 85 18" fill="none" xmlns="http://www.w3.org/2000/svg">
<path fill-rule="evenodd" clip-rule="evenodd" d="M65.8298 13.1688H67.6819V0.76148H65.8298V13.1688ZM82.5109 5.23075L80.388 10.6102H80.3244L78.1211 5.23075H76.1261L79.4302 12.749L77.5464 16.9314H79.4788L84.5704 5.23075H82.5109ZM72.0082 11.7595C71.4008 11.7595 70.5552 11.4568 70.5552 10.7064C70.5552 9.74865 71.6092 9.38142 72.5184 9.38142C73.3332 9.38142 73.7153 9.5571 74.2106 9.79629C74.0667 10.9456 73.0771 11.7595 72.0082 11.7595ZM72.2315 4.95979C70.8906 4.95979 69.5021 5.55034 68.9275 6.85946L70.5711 7.54528C70.9224 6.85946 71.5765 6.63515 72.2633 6.63515C73.2211 6.63515 74.1947 7.20981 74.2106 8.2321V8.35914C73.8751 8.16759 73.1575 7.88075 72.2792 7.88075C70.5075 7.88075 68.7032 8.8544 68.7032 10.6737C68.7032 12.3341 70.1562 13.4041 71.7839 13.4041C73.0295 13.4041 73.7153 12.8453 74.1471 12.1902H74.2106V13.148H75.9981V8.39189C75.9981 6.18852 74.3545 4.95979 72.2315 4.95979ZM60.7859 6.74135H58.1518V2.48845H60.7859C62.1705 2.48845 62.9565 3.63479 62.9565 4.6144C62.9565 5.57614 62.1705 6.74135 60.7859 6.74135ZM60.7383 0.76148H56.3008V13.1688H58.1518V8.46832H60.7383C62.7908 8.46832 64.8085 6.98154 64.8085 4.6144C64.8085 2.24727 62.7908 0.76148 60.7383 0.76148ZM36.5399 11.7615C35.2606 11.7615 34.1896 10.6905 34.1896 9.21965C34.1896 7.73287 35.2606 6.64508 36.5399 6.64508C37.8034 6.64508 38.7939 7.73287 38.7939 9.21965C38.7939 10.6905 37.8034 11.7615 36.5399 11.7615ZM38.6659 5.92551H38.6023C38.1865 5.43025 37.3875 4.98262 36.3801 4.98262C34.269 4.98262 32.3346 6.83663 32.3346 9.21965C32.3346 11.5858 34.269 13.4249 36.3801 13.4249C37.3875 13.4249 38.1865 12.9773 38.6023 12.4652H38.6659V13.0726C38.6659 14.6884 37.8034 15.5519 36.4119 15.5519C35.2764 15.5519 34.5728 14.736 34.2849 14.0482L32.6701 14.7201C33.1336 15.8397 34.3653 17.2143 36.4119 17.2143C38.5865 17.2143 40.4256 15.935 40.4256 12.8175V5.2377H38.6659V5.92551ZM41.7049 13.1688H43.5599V0.760488H41.7049V13.1688ZM46.2933 9.07573C46.2457 7.44504 47.5568 6.61332 48.4996 6.61332C49.2361 6.61332 49.8594 6.98054 50.0668 7.50856L46.2933 9.07573ZM52.0498 7.66835C51.6985 6.72547 50.6266 4.98262 48.4361 4.98262C46.2615 4.98262 44.4552 6.69272 44.4552 9.20376C44.4552 11.5699 46.2457 13.4249 48.6436 13.4249C50.5789 13.4249 51.6985 12.2418 52.162 11.554L50.7229 10.5943C50.2435 11.298 49.5874 11.7615 48.6436 11.7615C47.7007 11.7615 47.0287 11.3297 46.597 10.4831L52.2414 8.14873L52.0498 7.66835ZM7.08124 6.27785V8.06833H11.3659C11.2379 9.07573 10.9024 9.81118 10.3913 10.3233C9.76697 10.9466 8.79133 11.6334 7.08124 11.6334C4.44315 11.6334 2.37972 9.50747 2.37972 6.86938C2.37972 4.2303 4.44315 2.10435 7.08124 2.10435C8.5045 2.10435 9.54366 2.66412 10.3109 3.38369L11.5743 2.12023C10.5024 1.09695 9.08015 0.312866 7.08124 0.312866C3.46751 0.312866 0.429443 3.25566 0.429443 6.86938C0.429443 10.4831 3.46751 13.4249 7.08124 13.4249C9.03152 13.4249 10.5024 12.7857 11.6537 11.5858C12.8368 10.4027 13.205 8.74026 13.205 7.3964C13.205 6.98054 13.1733 6.59744 13.1087 6.27785H7.08124ZM18.0772 11.7615C16.7979 11.7615 15.6942 10.7064 15.6942 9.20376C15.6942 7.68423 16.7979 6.64508 18.0772 6.64508C19.3556 6.64508 20.4593 7.68423 20.4593 9.20376C20.4593 10.7064 19.3556 11.7615 18.0772 11.7615ZM18.0772 4.98262C15.7419 4.98262 13.8392 6.75723 13.8392 9.20376C13.8392 11.6334 15.7419 13.4249 18.0772 13.4249C20.4116 13.4249 22.3143 11.6334 22.3143 9.20376C22.3143 6.75723 20.4116 4.98262 18.0772 4.98262ZM27.3205 11.7615C26.0411 11.7615 24.9375 10.7064 24.9375 9.20376C24.9375 7.68423 26.0411 6.64508 27.3205 6.64508C28.5998 6.64508 29.7025 7.68423 29.7025 9.20376C29.7025 10.7064 28.5998 11.7615 27.3205 11.7615ZM27.3205 4.98262C24.9861 4.98262 23.0835 6.75723 23.0835 9.20376C23.0835 11.6334 24.9861 13.4249 27.3205 13.4249C29.6549 13.4249 31.5575 11.6334 31.5575 9.20376C31.5575 6.75723 29.6549 4.98262 27.3205 4.98262Z" fill="#FFFFFE"/>
</svg>
