<svg width="136" height="51" viewBox="0 0 136 51" fill="none" xmlns="http://www.w3.org/2000/svg">
<path d="M28.6889 25.6602H3.9248V50.6788H28.6889V25.6602Z" fill="#00B67A"/>
<path d="M55.5166 25.6602H30.7524V50.6788H55.5166V25.6602Z" fill="#00B67A"/>
<path d="M82.3444 25.6602H57.5803V50.6788H82.3444V25.6602Z" fill="#00B67A"/>
<path d="M109.172 25.6602H84.4077V50.6788H109.172V25.6602Z" fill="#00B67A"/>
<path d="M123.618 25.6602H111.236V50.6788H123.618V25.6602Z" fill="#00B67A"/>
<path d="M16.3063 42.5217L20.0725 41.5575L21.6461 46.4569L16.3063 42.5217ZM24.9737 36.1889H18.3442L16.3063 29.8821L14.2684 36.1889H7.63885L13.0044 40.098L10.9665 46.4048L16.3321 42.4957L19.634 40.098L24.9737 36.1889Z" fill="black"/>
<path d="M43.1342 42.5217L46.9004 41.5575L48.474 46.4569L43.1342 42.5217ZM51.8017 36.1889H45.1721L43.1342 29.8821L41.0964 36.1889H34.4668L39.8324 40.098L37.7945 46.4048L43.16 42.4957L46.4619 40.098L51.8017 36.1889Z" fill="black"/>
<path d="M69.9621 42.5217L73.7283 41.5575L75.3019 46.4569L69.9621 42.5217ZM78.6296 36.1889H72L69.9621 29.8821L67.9242 36.1889H61.2947L66.6602 40.098L64.6224 46.4048L69.9879 42.4957L73.2898 40.098L78.6296 36.1889Z" fill="black"/>
<path d="M96.7901 42.5217L100.556 41.5575L102.13 46.4569L96.7901 42.5217ZM105.458 36.1889H98.8279L96.7901 29.8821L94.7522 36.1889H88.1226L93.4882 40.098L91.4503 46.4048L96.8159 42.4957L100.118 40.098L105.458 36.1889Z" fill="black"/>
<path d="M123.618 42.5217L127.384 41.5575L128.958 46.4569L123.618 42.5217ZM132.285 36.1889H125.656L123.618 29.8821L121.58 36.1889H114.951L120.316 40.098L118.278 46.4048L123.644 42.4957L126.946 40.098L132.285 36.1889Z" fill="black"/>
<path d="M19.7248 6.59351H27.3245V8.02455H24.3363V16.0692H22.6931V8.02455H19.7181V6.59351H19.7248ZM26.9998 9.20818H28.4044V10.5322H28.4309C28.4773 10.345 28.5635 10.1644 28.6893 9.99057C28.8152 9.81671 28.9676 9.64953 29.1465 9.5091C29.3254 9.36198 29.5242 9.2483 29.7428 9.15468C29.9615 9.06775 30.1868 9.02094 30.412 9.02094C30.5843 9.02094 30.7102 9.02763 30.7764 9.03431C30.8427 9.041 30.909 9.05437 30.9818 9.06106V10.5189C30.8758 10.4988 30.7698 10.4854 30.6572 10.472C30.5445 10.4587 30.4385 10.452 30.3325 10.452C30.0807 10.452 29.8422 10.5055 29.6169 10.6058C29.3917 10.7061 29.1995 10.8599 29.0339 11.0538C28.8682 11.2544 28.7357 11.4952 28.6363 11.7894C28.537 12.0836 28.4906 12.418 28.4906 12.7992V16.0625H26.9932V9.20818H26.9998ZM37.866 16.0692H36.395V15.1129H36.3685C36.183 15.4607 35.9114 15.7348 35.547 15.9421C35.1825 16.1494 34.8115 16.2564 34.4338 16.2564C33.5394 16.2564 32.89 16.0357 32.4925 15.5877C32.095 15.1397 31.8962 14.4643 31.8962 13.5615V9.20818H33.3936V13.4144C33.3936 14.0162 33.5062 14.4442 33.7381 14.6916C33.9634 14.9391 34.2881 15.0661 34.6989 15.0661C35.0169 15.0661 35.2753 15.0193 35.4873 14.919C35.6993 14.8187 35.8716 14.6916 35.9975 14.5245C36.13 14.364 36.2228 14.1633 36.2824 13.936C36.342 13.7086 36.3685 13.4612 36.3685 13.1937V9.21487H37.866V16.0692ZM40.4169 13.8691C40.4632 14.3105 40.6289 14.6181 40.9138 14.7986C41.2053 14.9725 41.5499 15.0661 41.954 15.0661C42.0932 15.0661 42.2522 15.0527 42.4311 15.0327C42.61 15.0126 42.7822 14.9658 42.9346 14.9056C43.0936 14.8454 43.2195 14.7518 43.3255 14.6314C43.4249 14.5111 43.4713 14.3573 43.4647 14.1633C43.4581 13.9694 43.3852 13.8089 43.2527 13.6886C43.1201 13.5615 42.9545 13.4679 42.7491 13.3876C42.5437 13.3141 42.3118 13.2472 42.0468 13.1937C41.7817 13.1402 41.5167 13.08 41.2451 13.0198C40.9668 12.9597 40.6951 12.8794 40.4367 12.7925C40.1783 12.7056 39.9464 12.5852 39.741 12.4314C39.5356 12.2843 39.37 12.0903 39.2507 11.8563C39.1248 11.6222 39.0652 11.3347 39.0652 10.987C39.0652 10.6125 39.158 10.3049 39.3369 10.0508C39.5158 9.79665 39.7477 9.59603 40.0193 9.44223C40.2976 9.28842 40.6024 9.18143 40.9403 9.11456C41.2782 9.05437 41.6029 9.02094 41.9076 9.02094C42.2588 9.02094 42.5967 9.06106 42.9147 9.13462C43.2328 9.20818 43.5243 9.32855 43.7827 9.50241C44.0411 9.66959 44.2531 9.89027 44.4254 10.1578C44.5977 10.4252 44.7037 10.7529 44.7501 11.1341H43.1864C43.1135 10.773 42.9545 10.5255 42.6961 10.4052C42.4377 10.2781 42.1395 10.2179 41.8083 10.2179C41.7022 10.2179 41.5764 10.2246 41.4306 10.2447C41.2848 10.2647 41.1523 10.2982 41.0198 10.345C40.8939 10.3918 40.7879 10.4654 40.6951 10.559C40.609 10.6526 40.5626 10.773 40.5626 10.9268C40.5626 11.114 40.6289 11.2611 40.7548 11.3748C40.8807 11.4885 41.0463 11.5821 41.2517 11.6624C41.4571 11.7359 41.689 11.8028 41.954 11.8563C42.219 11.9098 42.4907 11.97 42.769 12.0302C43.0406 12.0903 43.3057 12.1706 43.5707 12.2575C43.8357 12.3444 44.0676 12.4648 44.273 12.6186C44.4784 12.7724 44.6441 12.9597 44.7699 13.187C44.8958 13.4144 44.9621 13.7019 44.9621 14.0363C44.9621 14.4442 44.8693 14.7853 44.6838 15.0728C44.4983 15.3537 44.2598 15.5877 43.9682 15.7616C43.6767 15.9354 43.3454 16.0692 42.9876 16.1494C42.6298 16.2297 42.2721 16.2698 41.9209 16.2698C41.4902 16.2698 41.0927 16.223 40.7283 16.1227C40.3638 16.0224 40.0458 15.8753 39.7808 15.6813C39.5158 15.4807 39.3037 15.2333 39.1513 14.9391C38.999 14.6448 38.9194 14.2904 38.9062 13.8825H40.4169V13.8691ZM45.3596 9.20818H46.4926V7.14854H47.99V9.20818H49.3417V10.3383H47.99V14.0029C47.99 14.1633 47.9967 14.2971 48.0099 14.4175C48.0232 14.5311 48.0563 14.6314 48.1027 14.7117C48.1491 14.7919 48.2219 14.8521 48.3213 14.8922C48.4207 14.9324 48.5466 14.9524 48.7189 14.9524C48.8249 14.9524 48.9309 14.9524 49.0369 14.9457C49.1429 14.9391 49.2489 14.9257 49.3549 14.8989V16.0692C49.1893 16.0892 49.0236 16.1026 48.8713 16.1227C48.7122 16.1427 48.5532 16.1494 48.3876 16.1494C47.99 16.1494 47.672 16.1093 47.4335 16.0357C47.195 15.9622 47.0028 15.8485 46.8703 15.7014C46.7312 15.5543 46.645 15.3737 46.592 15.153C46.5456 14.9324 46.5125 14.6783 46.5059 14.3974V10.3517H45.3729V9.20818H45.3596ZM50.4018 9.20818H51.8197V10.1377H51.8462C52.0582 9.73646 52.3498 9.4556 52.7274 9.28174C53.1051 9.10787 53.5093 9.02094 53.9532 9.02094C54.4899 9.02094 54.9537 9.11456 55.3512 9.30848C55.7487 9.49572 56.08 9.75652 56.3451 10.0909C56.6101 10.4252 56.8022 10.8131 56.9347 11.2544C57.0673 11.6958 57.1335 12.1706 57.1335 12.6721C57.1335 13.1335 57.0739 13.5816 56.9546 14.0095C56.8354 14.4442 56.6565 14.8254 56.4179 15.1597C56.1794 15.4941 55.8746 15.7549 55.5036 15.9555C55.1326 16.1561 54.7019 16.2564 54.1983 16.2564C53.9797 16.2564 53.761 16.2364 53.5424 16.1962C53.3237 16.1561 53.1117 16.0892 52.9129 16.0023C52.7142 15.9154 52.522 15.8017 52.3564 15.6613C52.1841 15.5208 52.045 15.3603 51.9257 15.1798H51.8992V18.6036H50.4018V9.20818V9.20818ZM55.6361 12.6454C55.6361 12.3378 55.5964 12.0368 55.5168 11.7426C55.4373 11.4484 55.3181 11.1943 55.1591 10.9669C55 10.7395 54.8013 10.559 54.5694 10.4252C54.3308 10.2915 54.0592 10.2179 53.7544 10.2179C53.125 10.2179 52.6479 10.4386 52.3299 10.88C52.0118 11.3213 51.8528 11.9098 51.8528 12.6454C51.8528 12.9931 51.8926 13.3141 51.9787 13.6083C52.0649 13.9026 52.1841 14.1567 52.3564 14.3706C52.522 14.5846 52.7208 14.7518 52.9527 14.8722C53.1846 14.9992 53.4563 15.0594 53.761 15.0594C54.1056 15.0594 54.3905 14.9859 54.629 14.8454C54.8675 14.705 55.0597 14.5178 55.2121 14.2971C55.3645 14.0697 55.4771 13.8156 55.5433 13.5281C55.603 13.2405 55.6361 12.9463 55.6361 12.6454V12.6454ZM58.2798 6.59351H59.7772V8.02455H58.2798V6.59351ZM58.2798 9.20818H59.7772V16.0692H58.2798V9.20818ZM61.1156 6.59351H62.613V16.0692H61.1156V6.59351ZM67.2046 16.2564C66.6613 16.2564 66.1776 16.1628 65.7536 15.9823C65.3295 15.8017 64.9717 15.5476 64.6736 15.2333C64.382 14.9123 64.1568 14.5311 64.0044 14.0898C63.852 13.6484 63.7725 13.1603 63.7725 12.632C63.7725 12.1104 63.852 11.6289 64.0044 11.1876C64.1568 10.7462 64.382 10.3651 64.6736 10.0441C64.9651 9.72309 65.3295 9.47566 65.7536 9.29511C66.1776 9.11456 66.6613 9.02094 67.2046 9.02094C67.7479 9.02094 68.2316 9.11456 68.6556 9.29511C69.0797 9.47566 69.4375 9.72977 69.7356 10.0441C70.0271 10.3651 70.2524 10.7462 70.4048 11.1876C70.5572 11.6289 70.6367 12.1104 70.6367 12.632C70.6367 13.1603 70.5572 13.6484 70.4048 14.0898C70.2524 14.5311 70.0271 14.9123 69.7356 15.2333C69.4441 15.5543 69.0797 15.8017 68.6556 15.9823C68.2316 16.1628 67.7479 16.2564 67.2046 16.2564V16.2564ZM67.2046 15.0594C67.5359 15.0594 67.8274 14.9859 68.0726 14.8454C68.3177 14.705 68.5165 14.5178 68.6755 14.2904C68.8345 14.063 68.9472 13.8022 69.0267 13.5147C69.0996 13.2271 69.1393 12.9329 69.1393 12.632C69.1393 12.3378 69.0996 12.0502 69.0267 11.756C68.9538 11.4617 68.8345 11.2076 68.6755 10.9803C68.5165 10.7529 68.3177 10.5724 68.0726 10.4319C67.8274 10.2915 67.5359 10.2179 67.2046 10.2179C66.8733 10.2179 66.5818 10.2915 66.3366 10.4319C66.0915 10.5724 65.8927 10.7596 65.7337 10.9803C65.5747 11.2076 65.462 11.4617 65.3825 11.756C65.3096 12.0502 65.2699 12.3378 65.2699 12.632C65.2699 12.9329 65.3096 13.2271 65.3825 13.5147C65.4554 13.8022 65.5747 14.063 65.7337 14.2904C65.8927 14.5178 66.0915 14.705 66.3366 14.8454C66.5818 14.9926 66.8733 15.0594 67.2046 15.0594V15.0594ZM71.074 9.20818H72.207V7.14854H73.7044V9.20818H75.0561V10.3383H73.7044V14.0029C73.7044 14.1633 73.711 14.2971 73.7243 14.4175C73.7375 14.5311 73.7707 14.6314 73.8171 14.7117C73.8634 14.7919 73.9363 14.8521 74.0357 14.8922C74.1351 14.9324 74.261 14.9524 74.4332 14.9524C74.5393 14.9524 74.6453 14.9524 74.7513 14.9457C74.8573 14.9391 74.9633 14.9257 75.0693 14.8989V16.0692C74.9037 16.0892 74.738 16.1026 74.5856 16.1227C74.4266 16.1427 74.2676 16.1494 74.102 16.1494C73.7044 16.1494 73.3864 16.1093 73.1479 16.0357C72.9093 15.9622 72.7172 15.8485 72.5847 15.7014C72.4455 15.5543 72.3594 15.3737 72.3064 15.153C72.26 14.9324 72.2269 14.6783 72.2203 14.3974V10.3517H71.0873V9.20818H71.074Z" fill="black"/>
<path d="M17.9755 6.59352H11.1113L8.99109 0L6.86423 6.59352L0 6.58683L5.55897 10.666L3.43212 17.2528L8.99109 13.1804L14.5434 17.2528L12.4232 10.666L17.9755 6.59352Z" fill="#00B67A"/>
<path d="M12.9003 12.1571L12.4232 10.6659L8.99109 13.1803L12.9003 12.1571Z" fill="#005128"/>
</svg>
